%TF.GenerationSoftware,KiCad,Pcbnew,8.0.4*%
%TF.CreationDate,2024-08-20T10:43:48+02:00*%
%TF.ProjectId,usb-bridge,7573622d-6272-4696-9467-652e6b696361,rev?*%
%TF.SameCoordinates,Original*%
%TF.FileFunction,Copper,L1,Top*%
%TF.FilePolarity,Positive*%
%FSLAX46Y46*%
G04 Gerber Fmt 4.6, Leading zero omitted, Abs format (unit mm)*
G04 Created by KiCad (PCBNEW 8.0.4) date 2024-08-20 10:43:48*
%MOMM*%
%LPD*%
G01*
G04 APERTURE LIST*
G04 Aperture macros list*
%AMRoundRect*
0 Rectangle with rounded corners*
0 $1 Rounding radius*
0 $2 $3 $4 $5 $6 $7 $8 $9 X,Y pos of 4 corners*
0 Add a 4 corners polygon primitive as box body*
4,1,4,$2,$3,$4,$5,$6,$7,$8,$9,$2,$3,0*
0 Add four circle primitives for the rounded corners*
1,1,$1+$1,$2,$3*
1,1,$1+$1,$4,$5*
1,1,$1+$1,$6,$7*
1,1,$1+$1,$8,$9*
0 Add four rect primitives between the rounded corners*
20,1,$1+$1,$2,$3,$4,$5,0*
20,1,$1+$1,$4,$5,$6,$7,0*
20,1,$1+$1,$6,$7,$8,$9,0*
20,1,$1+$1,$8,$9,$2,$3,0*%
G04 Aperture macros list end*
%TA.AperFunction,SMDPad,CuDef*%
%ADD10RoundRect,0.100000X0.295000X-0.100000X0.295000X0.100000X-0.295000X0.100000X-0.295000X-0.100000X0*%
%TD*%
%TA.AperFunction,SMDPad,CuDef*%
%ADD11RoundRect,0.162500X0.637500X-0.162500X0.637500X0.162500X-0.637500X0.162500X-0.637500X-0.162500X0*%
%TD*%
%TA.AperFunction,ViaPad*%
%ADD12C,0.600000*%
%TD*%
%TA.AperFunction,Conductor*%
%ADD13C,0.500000*%
%TD*%
G04 APERTURE END LIST*
D10*
%TO.P,J2,A1*%
%TO.N,N/C*%
X6330000Y2800000D03*
%TO.P,J2,A4*%
X6330000Y2000000D03*
%TO.P,J2,A5,CC1*%
%TO.N,unconnected-(J2-CC1-PadA5)*%
X6330000Y1200000D03*
%TO.P,J2,A6*%
%TO.N,N/C*%
X6330000Y400000D03*
%TO.P,J2,A7*%
X6330000Y-400000D03*
%TO.P,J2,A8*%
X6330000Y-1200000D03*
%TO.P,J2,A9,VBUS*%
%TO.N,Net-(J1-VBUS-PadA9)*%
X6330000Y-2000000D03*
%TO.P,J2,A12,GND*%
%TO.N,Net-(J1-SHIELD)*%
X6330000Y-2800000D03*
%TO.P,J2,B1*%
%TO.N,N/C*%
X8870000Y-2800000D03*
%TO.P,J2,B4*%
X8870000Y-2000000D03*
%TO.P,J2,B5,CC2*%
%TO.N,unconnected-(J2-CC2-PadB5)*%
X8870000Y-1200000D03*
%TO.P,J2,B6*%
%TO.N,N/C*%
X8870000Y-400000D03*
%TO.P,J2,B7*%
X8870000Y400000D03*
%TO.P,J2,B8*%
X8870000Y1200000D03*
%TO.P,J2,B9,VBUS*%
%TO.N,Net-(J1-VBUS-PadA9)*%
X8870000Y2000000D03*
%TO.P,J2,B12,GND*%
%TO.N,Net-(J1-SHIELD)*%
X8870000Y2800000D03*
D11*
%TO.P,J2,S1,SHIELD*%
X7600000Y3950000D03*
X7600000Y-3950000D03*
%TD*%
D10*
%TO.P,J1,A1*%
%TO.N,N/C*%
X-1270000Y2800000D03*
%TO.P,J1,A4*%
X-1270000Y2000000D03*
%TO.P,J1,A5,CC1*%
%TO.N,unconnected-(J1-CC1-PadA5)*%
X-1270000Y1200000D03*
%TO.P,J1,A6*%
%TO.N,N/C*%
X-1270000Y400000D03*
%TO.P,J1,A7*%
X-1270000Y-400000D03*
%TO.P,J1,A8*%
X-1270000Y-1200000D03*
%TO.P,J1,A9,VBUS*%
%TO.N,Net-(J1-VBUS-PadA9)*%
X-1270000Y-2000000D03*
%TO.P,J1,A12,GND*%
%TO.N,Net-(J1-SHIELD)*%
X-1270000Y-2800000D03*
%TO.P,J1,B1*%
%TO.N,N/C*%
X1270000Y-2800000D03*
%TO.P,J1,B4*%
X1270000Y-2000000D03*
%TO.P,J1,B5,CC2*%
%TO.N,unconnected-(J1-CC2-PadB5)*%
X1270000Y-1200000D03*
%TO.P,J1,B6*%
%TO.N,N/C*%
X1270000Y-400000D03*
%TO.P,J1,B7*%
X1270000Y400000D03*
%TO.P,J1,B8*%
X1270000Y1200000D03*
%TO.P,J1,B9,VBUS*%
%TO.N,Net-(J1-VBUS-PadA9)*%
X1270000Y2000000D03*
%TO.P,J1,B12,GND*%
%TO.N,Net-(J1-SHIELD)*%
X1270000Y2800000D03*
D11*
%TO.P,J1,S1,SHIELD*%
X0Y3950000D03*
X0Y-3950000D03*
%TD*%
D12*
%TO.N,Net-(J1-SHIELD)*%
X4000000Y3000000D03*
X3000000Y-1000000D03*
X4000000Y-3000000D03*
%TD*%
D13*
%TO.N,Net-(J1-SHIELD)*%
X0Y3950000D02*
X7600000Y3950000D01*
X0Y-3950000D02*
X7600000Y-3950000D01*
X6330000Y-2800000D02*
X6450000Y-2800000D01*
X6450000Y-2800000D02*
X7600000Y-3950000D01*
X7600000Y3950000D02*
X7720000Y3950000D01*
X7720000Y3950000D02*
X8870000Y2800000D01*
%TO.N,Net-(J1-VBUS-PadA9)*%
X425000Y1549999D02*
X875001Y2000000D01*
X425000Y-699999D02*
X425000Y1549999D01*
X8000000Y-724999D02*
X6724999Y-2000000D01*
X875001Y2000000D02*
X1270000Y2000000D01*
X8000000Y1524999D02*
X8000000Y-724999D01*
X5935001Y-2000000D02*
X1935001Y2000000D01*
X6724999Y-2000000D02*
X6330000Y-2000000D01*
X-1270000Y-2000000D02*
X-875001Y-2000000D01*
X1935001Y2000000D02*
X1270000Y2000000D01*
X-875001Y-2000000D02*
X425000Y-699999D01*
X6330000Y-2000000D02*
X5935001Y-2000000D01*
X8870000Y2000000D02*
X8475001Y2000000D01*
X8475001Y2000000D02*
X8000000Y1524999D01*
%TO.N,Net-(J1-SHIELD)*%
X-1150000Y-2800000D02*
X0Y-3950000D01*
X-1270000Y-2800000D02*
X-1150000Y-2800000D01*
X1150000Y2800000D02*
X0Y3950000D01*
X1270000Y2800000D02*
X1150000Y2800000D01*
%TD*%
%TA.AperFunction,Conductor*%
%TO.N,Net-(J1-SHIELD)*%
G36*
X2370701Y502483D02*
G01*
X2377180Y496451D01*
X5352050Y-2478416D01*
X5403313Y-2529679D01*
X5436798Y-2591002D01*
X5436882Y-2593037D01*
X5442989Y-2600000D01*
X5444486Y-2600000D01*
X5511525Y-2619685D01*
X5513368Y-2620892D01*
X5579506Y-2665084D01*
X5579508Y-2665085D01*
X5579512Y-2665087D01*
X5716083Y-2721656D01*
X5716088Y-2721658D01*
X5716092Y-2721658D01*
X5716093Y-2721659D01*
X5861080Y-2750500D01*
X5861083Y-2750500D01*
X6798919Y-2750500D01*
X6896461Y-2731096D01*
X6943912Y-2721658D01*
X7080494Y-2665084D01*
X7141179Y-2624536D01*
X7146623Y-2620899D01*
X7213300Y-2600020D01*
X7215515Y-2600000D01*
X7217010Y-2600000D01*
X7228745Y-2586619D01*
X7232193Y-2564511D01*
X7256680Y-2529686D01*
X7762821Y-2023544D01*
X7824142Y-1990061D01*
X7893834Y-1995045D01*
X7949767Y-2036917D01*
X7974184Y-2102381D01*
X7974500Y-2111223D01*
X7974500Y-2139362D01*
X7989953Y-2256753D01*
X7989957Y-2256765D01*
X8029631Y-2352548D01*
X8037100Y-2422017D01*
X8029631Y-2447452D01*
X7989957Y-2543234D01*
X7989955Y-2543239D01*
X7974500Y-2660638D01*
X7974500Y-2939356D01*
X7980485Y-2984818D01*
X7969717Y-3053853D01*
X7923336Y-3106107D01*
X7857545Y-3125000D01*
X7850000Y-3125000D01*
X7850000Y-3700000D01*
X8896915Y-3700000D01*
X8896914Y-3699999D01*
X8893935Y-3667207D01*
X8893933Y-3667200D01*
X8892123Y-3661390D01*
X8890971Y-3591529D01*
X8927772Y-3532137D01*
X8990841Y-3502069D01*
X9010504Y-3500499D01*
X9204360Y-3500499D01*
X9204363Y-3500499D01*
X9329821Y-3483984D01*
X9330154Y-3486518D01*
X9387230Y-3487860D01*
X9445104Y-3527005D01*
X9472627Y-3591226D01*
X9473508Y-3605983D01*
X9473508Y-4375500D01*
X9453823Y-4442539D01*
X9401019Y-4488294D01*
X9349508Y-4499500D01*
X8979347Y-4499500D01*
X8912308Y-4479815D01*
X8866553Y-4427011D01*
X8856609Y-4357853D01*
X8860962Y-4338610D01*
X8893932Y-4232802D01*
X8893935Y-4232792D01*
X8896914Y-4200000D01*
X6303085Y-4200000D01*
X6306064Y-4232792D01*
X6306067Y-4232802D01*
X6339038Y-4338610D01*
X6340190Y-4408470D01*
X6303389Y-4467862D01*
X6240320Y-4497930D01*
X6220653Y-4499500D01*
X1379347Y-4499500D01*
X1312308Y-4479815D01*
X1266553Y-4427011D01*
X1256609Y-4357853D01*
X1260962Y-4338610D01*
X1293932Y-4232802D01*
X1293935Y-4232792D01*
X1296914Y-4200000D01*
X-1296914Y-4200000D01*
X-1293935Y-4232792D01*
X-1293932Y-4232802D01*
X-1260962Y-4338610D01*
X-1259810Y-4408470D01*
X-1296611Y-4467862D01*
X-1359680Y-4497930D01*
X-1379347Y-4499500D01*
X-1729693Y-4499500D01*
X-1796732Y-4479815D01*
X-1842487Y-4427011D01*
X-1853693Y-4375500D01*
X-1853693Y-3608564D01*
X-1834008Y-3541525D01*
X-1781204Y-3495770D01*
X-1713507Y-3485625D01*
X-1604323Y-3499999D01*
X-1410353Y-3499999D01*
X-1343313Y-3519683D01*
X-1297558Y-3572487D01*
X-1287614Y-3641645D01*
X-1291967Y-3660891D01*
X-1293934Y-3667203D01*
X-1293935Y-3667207D01*
X-1296914Y-3699999D01*
X-1296915Y-3700000D01*
X-250000Y-3700000D01*
X-250000Y-3125000D01*
X-258050Y-3125000D01*
X-325089Y-3105315D01*
X-370844Y-3052511D01*
X-377831Y-3005879D01*
X-382988Y-3000000D01*
X-1346000Y-3000000D01*
X-1413039Y-2980315D01*
X-1458794Y-2927511D01*
X-1470000Y-2876000D01*
X-1470000Y-2874500D01*
X-1450315Y-2807461D01*
X-1397511Y-2761706D01*
X-1346000Y-2750500D01*
X-801080Y-2750500D01*
X-656093Y-2721659D01*
X-656092Y-2721658D01*
X-656088Y-2721658D01*
X-519506Y-2665084D01*
X-458821Y-2624536D01*
X-458820Y-2624536D01*
X-453377Y-2620899D01*
X-386700Y-2600020D01*
X-384485Y-2600000D01*
X-382989Y-2600000D01*
X-371253Y-2586619D01*
X-367804Y-2564507D01*
X-343315Y-2529682D01*
X-235650Y-2422017D01*
X162821Y-2023544D01*
X224142Y-1990061D01*
X293833Y-1995045D01*
X349767Y-2036916D01*
X374184Y-2102381D01*
X374500Y-2111223D01*
X374500Y-2139362D01*
X389953Y-2256753D01*
X389957Y-2256765D01*
X429631Y-2352548D01*
X437100Y-2422017D01*
X429631Y-2447452D01*
X389957Y-2543234D01*
X389955Y-2543239D01*
X374500Y-2660638D01*
X374500Y-2939356D01*
X380485Y-2984818D01*
X369717Y-3053853D01*
X323336Y-3106107D01*
X257545Y-3125000D01*
X250000Y-3125000D01*
X250000Y-3700000D01*
X1296915Y-3700000D01*
X1296914Y-3699999D01*
X1293935Y-3667207D01*
X1293933Y-3667200D01*
X1292123Y-3661390D01*
X1290971Y-3591529D01*
X1327772Y-3532137D01*
X1390841Y-3502069D01*
X1410504Y-3500499D01*
X1604360Y-3500499D01*
X1604363Y-3500499D01*
X1721753Y-3485046D01*
X1721757Y-3485044D01*
X1721762Y-3485044D01*
X1867841Y-3424536D01*
X1993282Y-3328282D01*
X2089536Y-3202841D01*
X2150044Y-3056762D01*
X2157517Y-3000001D01*
X5442988Y-3000001D01*
X5450442Y-3056627D01*
X5450444Y-3056633D01*
X5510899Y-3202585D01*
X5607075Y-3327924D01*
X5732413Y-3424100D01*
X5878365Y-3484554D01*
X5878369Y-3484555D01*
X5995676Y-3499999D01*
X6189646Y-3499999D01*
X6256686Y-3519683D01*
X6302441Y-3572487D01*
X6312385Y-3641645D01*
X6308034Y-3660883D01*
X6306067Y-3667194D01*
X6306064Y-3667207D01*
X6303085Y-3699999D01*
X6303085Y-3700000D01*
X7350000Y-3700000D01*
X7350000Y-3125000D01*
X7341950Y-3125000D01*
X7274911Y-3105315D01*
X7229156Y-3052511D01*
X7222168Y-3005879D01*
X7217012Y-3000000D01*
X5442990Y-3000000D01*
X5442988Y-3000001D01*
X2157517Y-3000001D01*
X2165500Y-2939361D01*
X2165499Y-2660640D01*
X2165499Y-2660638D01*
X2165499Y-2660636D01*
X2150046Y-2543246D01*
X2150044Y-2543241D01*
X2150044Y-2543238D01*
X2110366Y-2447449D01*
X2102898Y-2377985D01*
X2110363Y-2352557D01*
X2150044Y-2256762D01*
X2165500Y-2139361D01*
X2165499Y-1860640D01*
X2165499Y-1860639D01*
X2165499Y-1860636D01*
X2150046Y-1743246D01*
X2150044Y-1743241D01*
X2150044Y-1743238D01*
X2110366Y-1647449D01*
X2102898Y-1577985D01*
X2110363Y-1552557D01*
X2150044Y-1456762D01*
X2165500Y-1339361D01*
X2165499Y-1060640D01*
X2165499Y-1060636D01*
X2150046Y-943246D01*
X2150044Y-943241D01*
X2150044Y-943238D01*
X2110366Y-847449D01*
X2102898Y-777985D01*
X2110363Y-752557D01*
X2150044Y-656762D01*
X2165500Y-539361D01*
X2165499Y-260640D01*
X2165499Y-260639D01*
X2165499Y-260636D01*
X2150046Y-143246D01*
X2150044Y-143241D01*
X2150044Y-143238D01*
X2110366Y-47449D01*
X2102898Y22015D01*
X2110363Y47442D01*
X2150044Y143238D01*
X2165500Y260639D01*
X2165499Y408770D01*
X2185183Y475809D01*
X2237987Y521564D01*
X2307145Y531508D01*
X2370701Y502483D01*
G37*
%TD.AperFunction*%
%TA.AperFunction,Conductor*%
G36*
X-1312308Y4479815D02*
G01*
X-1266553Y4427011D01*
X-1256609Y4357853D01*
X-1260962Y4338610D01*
X-1293932Y4232802D01*
X-1293935Y4232792D01*
X-1296914Y4200000D01*
X1296914Y4200000D01*
X1293935Y4232792D01*
X1293932Y4232802D01*
X1260962Y4338610D01*
X1259810Y4408470D01*
X1296611Y4467862D01*
X1359680Y4497930D01*
X1379347Y4499500D01*
X6220653Y4499500D01*
X6287692Y4479815D01*
X6333447Y4427011D01*
X6343391Y4357853D01*
X6339038Y4338610D01*
X6306067Y4232802D01*
X6306064Y4232792D01*
X6303085Y4200000D01*
X8896914Y4200000D01*
X8893935Y4232792D01*
X8893932Y4232802D01*
X8860962Y4338610D01*
X8859810Y4408470D01*
X8896611Y4467862D01*
X8959680Y4497930D01*
X8979347Y4499500D01*
X9349508Y4499500D01*
X9416547Y4479815D01*
X9462302Y4427011D01*
X9473508Y4375500D01*
X9473508Y3605460D01*
X9453823Y3538421D01*
X9401019Y3492666D01*
X9331861Y3482722D01*
X9325233Y3484081D01*
X9204323Y3499999D01*
X9010353Y3499999D01*
X8943313Y3519683D01*
X8897558Y3572487D01*
X8887614Y3641645D01*
X8891967Y3660891D01*
X8893934Y3667203D01*
X8893935Y3667207D01*
X8896914Y3699999D01*
X8896914Y3700000D01*
X7850000Y3700000D01*
X7850000Y3125000D01*
X7858050Y3125000D01*
X7925089Y3105315D01*
X7970844Y3052511D01*
X7977831Y3005879D01*
X7982988Y3000000D01*
X8946000Y3000000D01*
X9013039Y2980315D01*
X9058794Y2927511D01*
X9070000Y2876000D01*
X9070000Y2874500D01*
X9050315Y2807461D01*
X8997511Y2761706D01*
X8946000Y2750500D01*
X8401081Y2750500D01*
X8256093Y2721659D01*
X8256088Y2721658D01*
X8256083Y2721656D01*
X8119507Y2665085D01*
X8119506Y2665084D01*
X8112854Y2660640D01*
X8112854Y2660639D01*
X8053375Y2620897D01*
X7986697Y2600020D01*
X7984485Y2600000D01*
X7982988Y2600000D01*
X7971253Y2586619D01*
X7967804Y2564507D01*
X7943315Y2529682D01*
X7437180Y2023548D01*
X7375857Y1990063D01*
X7306165Y1995047D01*
X7250232Y2036919D01*
X7225815Y2102383D01*
X7225499Y2111229D01*
X7225499Y2139363D01*
X7210046Y2256753D01*
X7210044Y2256756D01*
X7210044Y2256762D01*
X7170366Y2352550D01*
X7162898Y2422015D01*
X7170363Y2447442D01*
X7210044Y2543238D01*
X7225500Y2660639D01*
X7225499Y2939360D01*
X7219515Y2984818D01*
X7230283Y3053853D01*
X7276664Y3106107D01*
X7342455Y3125000D01*
X7350000Y3125000D01*
X7350000Y3700000D01*
X6303086Y3700000D01*
X6303085Y3699999D01*
X6306064Y3667207D01*
X6306066Y3667200D01*
X6307877Y3661390D01*
X6309029Y3591529D01*
X6272228Y3532137D01*
X6209159Y3502069D01*
X6189495Y3500499D01*
X5995640Y3500499D01*
X5995637Y3500499D01*
X5878246Y3485046D01*
X5878241Y3485044D01*
X5878238Y3485044D01*
X5732159Y3424536D01*
X5606718Y3328282D01*
X5510464Y3202841D01*
X5510463Y3202839D01*
X5449956Y3056762D01*
X5449955Y3056760D01*
X5434500Y2939361D01*
X5434501Y2660640D01*
X5434500Y2660640D01*
X5449953Y2543246D01*
X5449957Y2543234D01*
X5489631Y2447452D01*
X5497100Y2377983D01*
X5489631Y2352548D01*
X5449957Y2256765D01*
X5449955Y2256760D01*
X5434500Y2139361D01*
X5434500Y1860636D01*
X5449953Y1743246D01*
X5449957Y1743234D01*
X5489631Y1647452D01*
X5497100Y1577983D01*
X5489631Y1552548D01*
X5449957Y1456765D01*
X5449955Y1456760D01*
X5434500Y1339361D01*
X5434500Y1060636D01*
X5449953Y943246D01*
X5449957Y943234D01*
X5489631Y847452D01*
X5497100Y777983D01*
X5489631Y752548D01*
X5449957Y656765D01*
X5449955Y656760D01*
X5434500Y539361D01*
X5434500Y260636D01*
X5449953Y143246D01*
X5449957Y143234D01*
X5489631Y47452D01*
X5497100Y-22017D01*
X5489631Y-47452D01*
X5449957Y-143234D01*
X5449956Y-143238D01*
X5446671Y-168189D01*
X5418403Y-232085D01*
X5360078Y-270556D01*
X5290213Y-271386D01*
X5236051Y-239683D01*
X2413422Y2582947D01*
X2413421Y2582948D01*
X2413420Y2582948D01*
X2413417Y2582952D01*
X2297148Y2660639D01*
X2297148Y2660640D01*
X2293159Y2663303D01*
X2290496Y2665084D01*
X2153914Y2721658D01*
X2106463Y2731096D01*
X2008921Y2750500D01*
X2008919Y2750500D01*
X1343918Y2750500D01*
X801083Y2750500D01*
X801082Y2750500D01*
X795284Y2749346D01*
X772242Y2744763D01*
X656089Y2721659D01*
X576081Y2688518D01*
X576080Y2688518D01*
X519512Y2665087D01*
X519508Y2665085D01*
X519506Y2665084D01*
X519500Y2665080D01*
X453377Y2620898D01*
X386700Y2600020D01*
X384486Y2600000D01*
X382988Y2600000D01*
X371254Y2586620D01*
X367804Y2564505D01*
X343315Y2529681D01*
X-162260Y2024107D01*
X-164154Y2026001D01*
X-212235Y1993157D01*
X-282077Y1991193D01*
X-341894Y2027300D01*
X-372693Y2090015D01*
X-374500Y2111101D01*
X-374500Y2139362D01*
X-389953Y2256753D01*
X-389957Y2256765D01*
X-429631Y2352548D01*
X-437100Y2422017D01*
X-429631Y2447452D01*
X-389957Y2543234D01*
X-389955Y2543239D01*
X-374500Y2660640D01*
X-374500Y2939356D01*
X-380485Y2984818D01*
X-369717Y3053853D01*
X-323336Y3106107D01*
X-257545Y3125000D01*
X-250000Y3125000D01*
X250000Y3125000D01*
X258050Y3125000D01*
X325089Y3105315D01*
X370844Y3052511D01*
X377831Y3005879D01*
X382988Y3000000D01*
X2157010Y3000000D01*
X2157011Y3000001D01*
X2149557Y3056627D01*
X2149555Y3056633D01*
X2089100Y3202585D01*
X1992924Y3327924D01*
X1867586Y3424100D01*
X1721634Y3484554D01*
X1721630Y3484555D01*
X1604323Y3499999D01*
X1410353Y3499999D01*
X1343313Y3519683D01*
X1297558Y3572487D01*
X1287614Y3641645D01*
X1291967Y3660891D01*
X1293934Y3667203D01*
X1293935Y3667207D01*
X1296914Y3699999D01*
X1296914Y3700000D01*
X250000Y3700000D01*
X250000Y3125000D01*
X-250000Y3125000D01*
X-250000Y3700000D01*
X-1296914Y3700000D01*
X-1296914Y3699999D01*
X-1293935Y3667207D01*
X-1293933Y3667200D01*
X-1292123Y3661390D01*
X-1290971Y3591529D01*
X-1327772Y3532137D01*
X-1390841Y3502069D01*
X-1410504Y3500499D01*
X-1604360Y3500499D01*
X-1604362Y3500499D01*
X-1713509Y3486131D01*
X-1782545Y3496897D01*
X-1834800Y3543278D01*
X-1853693Y3609070D01*
X-1853693Y4375500D01*
X-1834008Y4442539D01*
X-1781204Y4488294D01*
X-1729693Y4499500D01*
X-1379347Y4499500D01*
X-1312308Y4479815D01*
G37*
%TD.AperFunction*%
%TD*%
M02*
